{"title":"The Big Short 2015 DVDScr XviD AC3-P2P","uid":13143273,"size":1650395436,"categoryP":"video","categoryS":"movies","magnet":"?xt=urn:btih:993a75b13dfd8acb769577468d57789cfa97918f&amp;dn=The+Big+Short+2015+DVDScr+XviD+AC3-P2P&amp;tr=udp%3A%2F%2Ftracker.leechers-paradise.org%3A6969&amp;tr=udp%3A%2F%2Fzer0day.ch%3A1337&amp;tr=udp%3A%2F%2Fopen.demonii.com%3A1337&amp;tr=udp%3A%2F%2Ftracker.coppersurfer.tk%3A6969&amp;tr=udp%3A%2F%2Fexodus.desync.com%3A6969","seeders":11,"leechers":7,"uploader":"makintos13","files":3,"time":1452004006,"description":"screenn:\r\n \nhttp://imgmak.com/image/K5g\r\n \nhttp://imgmak.com/image/K5o\r\n \nhttp://imgmak.com/image/K5N\r\n \nhttp://imgmak.com/image/K5Q\r\n\r\nFormat : AVI\r\nFormat/Info : Audio Video Interleave\r\nFile size : 1.52 GiB\r\nDuration : 2h 10mn\r\nOverall bit rate : 1 668 Kbps\r\nWriting application : Nandub v1.0rc2\r\nWriting library : Nandub build 1853/release\r\n\r\nVideo\r\nID : 0\r\nFormat : MPEG-4 Visual\r\nFormat profile : Advanced   \r\nFormat settings, BVOP : 2\r\nFormat settings, QPel : Yes\r\nFormat settings, GMC : No warppoints\r\nFormat settings, Matrix : Default (H.263)\r\nMuxing mode : Packed bitstream\r\nCodec ID : XVID\r\nCodec ID/Hint : XviD\r\nDuration : 2h 10mn\r\nBit rate : 1 401 Kbps\r\nWidth : 720 pixels\r\nHeight : 288 pixels\r\nDisplay aspect ratio : 2.500\r\nFrame rate : 29.970 (30000/1001) fps\r\nColor space : YUV\r\nChroma subsampling : 4:2:0\r\nBit depth : 8 bits\r\nScan type : Progressive\r\nCompression mode : Lossy\r\nBits/(Pixel*Frame) : 0.225\r\nStream size : 1.27 GiB (84%)\r\nWriting library : XviD 1.2.1 (UTC 2008-12-04)\r\n\r\nAudio\r\nID : 1\r\nFormat : AC-3\r\nFormat/Info : Audio Coding 3\r\nMode extension : CM (complete main)\r\nFormat settings, Endianness : Big\r\nCodec ID : 2000\r\nDuration : 2h 10mn\r\nBit rate mode : Constant\r\nBit rate : 256 Kbps\r\nChannel(s) : 2 channels\r\nChannel positions : Front: L R\r\nSampling rate : 48.0 KHz\r\nFrame rate : 31.250 fps (1536 spf)\r\nCompression mode : Lossy\r\nStream size : 238 MiB (15%)\r\nAlignment : Split accross interleaves\r\nInterleave, duration : 33 ms (1.00 video frame)\r\nInterleave, preload duration : 500 ms","torrent":{"xt":"urn:btih:993a75b13dfd8acb769577468d57789cfa97918f","amp;dn":"The+Big+Short+2015+DVDScr+XviD+AC3-P2P","amp;tr":["udp%3A%2F%2Ftracker.leechers-paradise.org%3A6969","udp%3A%2F%2Fzer0day.ch%3A1337","udp%3A%2F%2Fopen.demonii.com%3A1337","udp%3A%2F%2Ftracker.coppersurfer.tk%3A6969","udp%3A%2F%2Fexodus.desync.com%3A6969"],"infoHash":"993a75b13dfd8acb769577468d57789cfa97918f","infoHashBuffer":{"type":"Buffer","data":[153,58,117,177,61,253,138,203,118,149,119,70,141,87,120,156,250,151,145,143]},"announce":[],"urlList":[]}}